# xmcd
# 
# Track frame offsets:
#     150
#     22975
#     39850
#     58895
#     79355
#     100152
#     121332
#     140140
#     158675
#     184547
# 
# Disc length: 2728
# 
# Revision: 13
# Processed by: cddbd v1.5.2PL0 Copyright (c) Steve Scherf et al.
# Submitted via: fre:ac v1.0.17
# 
DISCID=7d0aa60a
DTITLE=Mr.Children - Versus
DYEAR=1993
DGENRE=JPop
TTITLE0=Another Mind
TTITLE1=メインストリートに行こう
TTITLE2=and I close to you
TTITLE3=Replay
TTITLE4=マーマレード・キッス
TTITLE5=蜃気楼
TTITLE6=逃亡者
TTITLE7=LOVE
TTITLE8=さよならは夢の中へ
TTITLE9=my life
EXTD=YEAR: 1993
EXTT0=
EXTT1=
EXTT2=
EXTT3=
EXTT4=
EXTT5=
EXTT6=
EXTT7=
EXTT8=
EXTT9=
PLAYORDER=
